<?xml version="1.0" encoding="UTF-8"?>
<svg width="12px" height="12px" viewBox="0 0 12 12" version="1.1" xmlns="http://www.w3.org/2000/svg" xmlns:xlink="http://www.w3.org/1999/xlink">
    <!-- Generator: Sketch 61 (89581) - https://sketch.com -->
    <title>历史</title>
    <desc>Created with Sketch.</desc>
    <g id="改2" stroke="none" stroke-width="1" fill="none" fill-rule="evenodd">
        <g id="企业库1.1（变更关联）" transform="translate(-395.000000, -350.000000)" fill-rule="nonzero">
            <g id="弹框" transform="translate(240.000000, 331.000000)">
                <g id="basic-idle">
                    <g id="Header" transform="translate(0.000000, 15.000000)">
                        <g id="编辑&amp;历史" transform="translate(134.000000, 3.000000)">
                            <g id="历史" transform="translate(20.000000, 0.000000)">
                                <rect id="矩形" fill="#000000" opacity="0" x="0" y="0" width="14" height="14"></rect>
                                <path d="M6.85,1 C3.61944196,1 1,3.61944196 1,6.85 C1,10.080558 3.61944196,12.7 6.85,12.7 C10.080558,12.7 12.7,10.080558 12.7,6.85 C12.7,3.61944196 10.080558,1 6.85,1 Z M9.1547433,8.64809152 L8.78128348,9.15735491 C8.74733259,9.20436384 8.68204241,9.21350446 8.63503348,9.17955357 L6.47523437,7.60475446 C6.4478125,7.58516741 6.43214286,7.55382812 6.43214286,7.51987723 L6.43214286,3.925 C6.43214286,3.86754464 6.47915179,3.82053571 6.53660714,3.82053571 L7.16469866,3.82053571 C7.22215402,3.82053571 7.26916295,3.86754464 7.26916295,3.925 L7.26916295,7.15686384 L9.13123884,8.50314732 C9.17824777,8.53579241 9.1886942,8.60108259 9.1547433,8.64809152 Z" id="形状" fill="#999999"></path>
                            </g>
                        </g>
                    </g>
                </g>
            </g>
        </g>
    </g>
</svg>