<?xml version="1.0" encoding="UTF-8"?>
<svg width="12px" height="12px" viewBox="0 0 12 12" version="1.1" xmlns="http://www.w3.org/2000/svg" xmlns:xlink="http://www.w3.org/1999/xlink">
    <!-- Generator: Sketch 61 (89581) - https://sketch.com -->
    <title>编辑</title>
    <desc>Created with Sketch.</desc>
    <g id="改2" stroke="none" stroke-width="1" fill="none" fill-rule="evenodd">
        <g id="企业库1.1（变更关联）" transform="translate(-375.000000, -350.000000)" fill-rule="nonzero">
            <g id="弹框" transform="translate(240.000000, 331.000000)">
                <g id="basic-idle">
                    <g id="Header" transform="translate(0.000000, 15.000000)">
                        <g id="编辑&amp;历史" transform="translate(134.000000, 3.000000)">
                            <g id="编辑">
                                <rect id="矩形" fill="#456EE8" opacity="0" x="0" y="0" width="14" height="14"></rect>
                                <path d="M12.03125,11.4296875 L1.96875,11.4296875 C1.72675781,11.4296875 1.53125,11.6251953 1.53125,11.8671875 L1.53125,12.359375 C1.53125,12.4195313 1.58046875,12.46875 1.640625,12.46875 L12.359375,12.46875 C12.4195312,12.46875 12.46875,12.4195313 12.46875,12.359375 L12.46875,11.8671875 C12.46875,11.6251953 12.2732422,11.4296875 12.03125,11.4296875 Z M3.52324219,10.28125 C3.55058594,10.28125 3.57792969,10.2785156 3.60527344,10.2744141 L5.90488281,9.87109375 C5.93222656,9.865625 5.95820312,9.85332031 5.97734375,9.8328125 L11.7728516,4.03730469 C11.8261719,3.98398438 11.8261719,3.89785156 11.7728516,3.84453125 L9.50058594,1.57089844 C9.47460938,1.54492188 9.44042969,1.53125 9.40351562,1.53125 C9.36660156,1.53125 9.33242187,1.54492188 9.30644531,1.57089844 L3.5109375,7.36640625 C3.49042969,7.38691406 3.478125,7.41152344 3.47265625,7.43886719 L3.06933594,9.73847656 C3.04335937,9.89023438 3.08984375,10.0378906 3.19785156,10.1458984 C3.28808594,10.2333984 3.4015625,10.28125 3.52324219,10.28125 L3.52324219,10.28125 Z" id="形状" fill="#999999"></path>
                            </g>
                        </g>
                    </g>
                </g>
            </g>
        </g>
    </g>
</svg>