<?xml version="1.0" encoding="UTF-8"?>
<svg width="12px" height="14px" viewBox="0 0 12 14" version="1.1" xmlns="http://www.w3.org/2000/svg" xmlns:xlink="http://www.w3.org/1999/xlink">
    <!-- Generator: Sketch 61 (89581) - https://sketch.com -->
    <title>形状</title>
    <desc>Created with Sketch.</desc>
    <g id="改2" stroke="none" stroke-width="1" fill="none" fill-rule="evenodd">
        <g id="维护日志（上下游维护日志）1" transform="translate(-1206.000000, -265.000000)" fill="#999999" fill-rule="nonzero">
            <g id="编组" transform="translate(135.000000, 196.000000)">
                <g id="编组-4" transform="translate(1065.000000, 17.000000)">
                    <g id="file-text" transform="translate(4.000000, 51.000000)">
                        <path d="M13.353125,4.509375 L9.990625,1.146875 C9.896875,1.053125 9.7703125,1 9.6375,1 L3,1 C2.7234375,1 2.5,1.2234375 2.5,1.5 L2.5,14.5 C2.5,14.7765625 2.7234375,15 3,15 L13,15 C13.2765625,15 13.5,14.7765625 13.5,14.5 L13.5,4.8640625 C13.5,4.73125 13.446875,4.603125 13.353125,4.509375 Z M12.346875,5.09375 L9.40625,5.09375 L9.40625,2.153125 L12.346875,5.09375 Z M12.375,13.875 L3.625,13.875 L3.625,2.125 L8.34375,2.125 L8.34375,5.5 C8.34375,5.8625 8.6375,6.15625 9,6.15625 L12.375,6.15625 L12.375,13.875 Z M9.795,9.125 L5.08,9.125 C4.96725,9.125 4.875,9.18125 4.875,9.25 L4.875,10 C4.875,10.06875 4.96725,10.125 5.08,10.125 L9.795,10.125 C9.90775,10.125 10,10.06875 10,10 L10,9.25 C10,9.18125 9.90775,9.125 9.795,9.125 Z M10.875,11.25 L5.125,11.25 C4.9875,11.25 4.875,11.30625 4.875,11.375 L4.875,12.125 C4.875,12.19375 4.9875,12.25 5.125,12.25 L10.875,12.25 C11.0125,12.25 11.125,12.19375 11.125,12.125 L11.125,11.375 C11.125,11.30625 11.0125,11.25 10.875,11.25 Z M4.875,7.125 L4.875,7.875 C4.875,7.94375 4.90317,8 4.9376,8 L7.9424,8 C7.97683,8 8.005,7.94375 8.005,7.875 L8.005,7.125 C8.005,7.05625 7.97683,7 7.9424,7 L4.9376,7 C4.90317,7 4.875,7.05625 4.875,7.125 Z" id="形状"></path>
                    </g>
                </g>
            </g>
        </g>
    </g>
</svg>