<?xml version="1.0" encoding="UTF-8"?>
<svg width="297px" height="162px" viewBox="0 0 297 162" version="1.1" xmlns="http://www.w3.org/2000/svg" xmlns:xlink="http://www.w3.org/1999/xlink">
    <!-- Generator: Sketch 53.2 (72643) - https://sketchapp.com -->
    <title>分组 22</title>
    <desc>Created with Sketch.</desc>
    <defs>
        <linearGradient x1="67.9954186%" y1="66.3047066%" x2="56.3564445%" y2="7.81148701%" id="linearGradient-1">
            <stop stop-color="#F8F8FA" stop-opacity="0" offset="0%"></stop>
            <stop stop-color="#ECECEC" offset="100%"></stop>
        </linearGradient>
        <linearGradient x1="67.9954186%" y1="66.3047066%" x2="56.3564445%" y2="7.81148701%" id="linearGradient-2">
            <stop stop-color="#F8F8FA" stop-opacity="0" offset="0%"></stop>
            <stop stop-color="#ECECEC" offset="100%"></stop>
        </linearGradient>
        <linearGradient x1="67.9954186%" y1="66.3047066%" x2="56.3564445%" y2="7.81148701%" id="linearGradient-3">
            <stop stop-color="#F8F8FA" stop-opacity="0" offset="0%"></stop>
            <stop stop-color="#ECECEC" offset="100%"></stop>
        </linearGradient>
        <linearGradient x1="54.8637506%" y1="19.5029621%" x2="54.8637506%" y2="100%" id="linearGradient-4">
            <stop stop-color="#E6E6E6" stop-opacity="0.447552448" offset="0%"></stop>
            <stop stop-color="#F7F3F7" stop-opacity="0" offset="100%"></stop>
        </linearGradient>
        <linearGradient x1="102.957654%" y1="50%" x2="28.4180523%" y2="50%" id="linearGradient-5">
            <stop stop-color="#EFEFEF" offset="0%"></stop>
            <stop stop-color="#E6E6E6" offset="25.001615%"></stop>
            <stop stop-color="#DCDCDC" offset="100%"></stop>
        </linearGradient>
        <filter x="-6.6%" y="-30.0%" width="113.2%" height="160.0%" filterUnits="objectBoundingBox" id="filter-6">
            <feGaussianBlur stdDeviation="1" in="SourceGraphic"></feGaussianBlur>
        </filter>
        <linearGradient x1="23.0486372%" y1="52.2961441%" x2="131.838357%" y2="64.8014878%" id="linearGradient-7">
            <stop stop-color="#DCDCDC" offset="0%"></stop>
            <stop stop-color="#EFEFEF" offset="100%"></stop>
        </linearGradient>
        <filter x="-45.5%" y="-71.9%" width="190.9%" height="243.8%" filterUnits="objectBoundingBox" id="filter-8">
            <feGaussianBlur stdDeviation="5" in="SourceGraphic"></feGaussianBlur>
        </filter>
        <ellipse id="path-9" cx="131.134699" cy="128.819525" rx="32.3222058" ry="4.75"></ellipse>
        <filter x="-23.2%" y="-157.9%" width="146.4%" height="415.8%" filterUnits="objectBoundingBox" id="filter-10">
            <feGaussianBlur stdDeviation="5" in="SourceGraphic"></feGaussianBlur>
        </filter>
        <filter x="-33.3%" y="-226.3%" width="166.5%" height="552.6%" filterUnits="objectBoundingBox" id="filter-11">
            <feGaussianBlur stdDeviation="6" in="SourceAlpha" result="shadowBlurInner1"></feGaussianBlur>
            <feOffset dx="0" dy="1" in="shadowBlurInner1" result="shadowOffsetInner1"></feOffset>
            <feComposite in="shadowOffsetInner1" in2="SourceAlpha" operator="arithmetic" k2="-1" k3="1" result="shadowInnerInner1"></feComposite>
            <feColorMatrix values="0 0 0 0 0.577615489   0 0 0 0 0.577615489   0 0 0 0 0.577615489  0 0 0 0.981479458 0" type="matrix" in="shadowInnerInner1"></feColorMatrix>
        </filter>
        <polygon id="path-12" points="0.509885317 0.0293534553 76.1468074 0.0293534553 76.1468074 113.71597 0.509885317 113.71597"></polygon>
        <linearGradient x1="117.358694%" y1="54.7756311%" x2="57.4602741%" y2="54.7756311%" id="linearGradient-14">
            <stop stop-color="#E3E3E3" offset="0%"></stop>
            <stop stop-color="#CFCFD2" offset="100%"></stop>
        </linearGradient>
        <linearGradient x1="210.814775%" y1="64.4562441%" x2="65.0219239%" y2="64.4562441%" id="linearGradient-15">
            <stop stop-color="#FFFFFF" stop-opacity="0" offset="0%"></stop>
            <stop stop-color="#B9B9B9" stop-opacity="0.386746066" offset="100%"></stop>
        </linearGradient>
        <path d="M75.4503192,4.63540893 L76.1474506,108.607018 C76.1641714,111.167882 74.1023605,113.25799 71.5402098,113.275997 L5.8748107,113.715884 C3.31394631,113.731319 1.22383851,111.670794 1.20711764,109.108644 L0.509986304,5.13832102 C0.493265441,2.57617041 2.5550764,0.486062608 5.11594079,0.469341746 L70.7826262,0.0294544423 C73.3434905,0.0127335798 75.4335983,2.07454454 75.4503192,4.63540893" id="path-16"></path>
        <linearGradient x1="0%" y1="47.5173946%" x2="94.6052836%" y2="47.5173946%" id="linearGradient-17">
            <stop stop-color="#AAAAAA" stop-opacity="0.424442745" offset="0%"></stop>
            <stop stop-color="#FFFFFF" stop-opacity="0.297448645" offset="100%"></stop>
        </linearGradient>
        <linearGradient x1="100%" y1="43.6374914%" x2="-36.582325%" y2="43.6374914%" id="linearGradient-18">
            <stop stop-color="#F8F8FA" offset="0%"></stop>
            <stop stop-color="#D1D1D3" offset="99.9656883%"></stop>
        </linearGradient>
        <linearGradient x1="-358.476204%" y1="38.9670471%" x2="330.814041%" y2="38.9670471%" id="linearGradient-19">
            <stop stop-color="#F8F8FA" offset="0%"></stop>
            <stop stop-color="#D9D9D9" offset="99.9656883%"></stop>
        </linearGradient>
        <linearGradient x1="47.5636652%" y1="0%" x2="50%" y2="100%" id="linearGradient-20">
            <stop stop-color="#E3E3E5" offset="0%"></stop>
            <stop stop-color="#D2D2D3" offset="100%"></stop>
        </linearGradient>
        <polygon id="path-21" points="44 48 48 47.3910515 48 65.5118157 44 65"></polygon>
        <filter x="-62.5%" y="-19.3%" width="275.0%" height="138.6%" filterUnits="objectBoundingBox" id="filter-22">
            <feOffset dx="1" dy="0" in="SourceAlpha" result="shadowOffsetOuter1"></feOffset>
            <feGaussianBlur stdDeviation="1" in="shadowOffsetOuter1" result="shadowBlurOuter1"></feGaussianBlur>
            <feColorMatrix values="0 0 0 0 0.729959239   0 0 0 0 0.729959239   0 0 0 0 0.729959239  0 0 0 0.5 0" type="matrix" in="shadowBlurOuter1"></feColorMatrix>
        </filter>
        <linearGradient x1="50%" y1="0%" x2="50%" y2="100%" id="linearGradient-23">
            <stop stop-color="#EEEEEE" offset="0%"></stop>
            <stop stop-color="#D8D8D8" offset="100%"></stop>
        </linearGradient>
        <linearGradient x1="56.1087743%" y1="63.2048276%" x2="13.8756825%" y2="65.8487202%" id="linearGradient-24">
            <stop stop-color="#FFFFFF" stop-opacity="0.189220935" offset="0%"></stop>
            <stop stop-color="#444444" stop-opacity="0.168706294" offset="100%"></stop>
        </linearGradient>
        <linearGradient x1="43.891889%" y1="85.3035118%" x2="50%" y2="105.110229%" id="linearGradient-25">
            <stop stop-color="#FFFFFF" stop-opacity="0" offset="0%"></stop>
            <stop stop-color="#000000" stop-opacity="0.278654939" offset="100%"></stop>
        </linearGradient>
        <path d="M14.5220845,24.5785742 C13.2641553,25.1162319 8.48025769,24.0409165 6.58354952,22.37183 C4.68684135,20.7027436 8.20523821,20.1086355 3.4195937,17.4391503 C-1.36605081,14.7696651 -0.0909832836,12.4719885 2.81324012,8.07181353 C5.71746352,3.67163854 3.00483497,3.54488346 7.35356246,1.13139494 C11.70229,-1.28209358 15.9166587,1.178558 16.7238924,3.81890033 C17.5311261,6.45924266 15.3884788,10.1374376 20.5738391,9.79016364 C25.7591995,9.44288965 21.3874595,14.3628984 21.3874595,15.4368427 C21.3874595,16.510787 23.1276613,17.9343855 21.8049083,20.4381544 C20.4821553,22.9419232 15.7800138,24.0409165 14.5220845,24.5785742 Z" id="path-26"></path>
        <linearGradient x1="50%" y1="0%" x2="50%" y2="100%" id="linearGradient-27">
            <stop stop-color="#EEEEEE" offset="0%"></stop>
            <stop stop-color="#D8D8D8" offset="100%"></stop>
        </linearGradient>
        <linearGradient x1="57.4500121%" y1="58.9549084%" x2="68.173565%" y2="52.9069546%" id="linearGradient-28">
            <stop stop-color="#FFFFFF" stop-opacity="0.189220935" offset="0%"></stop>
            <stop stop-color="#000000" stop-opacity="0" offset="100%"></stop>
        </linearGradient>
        <linearGradient x1="47.7294526%" y1="85.3035118%" x2="50%" y2="105.110229%" id="linearGradient-29">
            <stop stop-color="#FFFFFF" stop-opacity="0" offset="0%"></stop>
            <stop stop-color="#000000" stop-opacity="0.278654939" offset="100%"></stop>
        </linearGradient>
        <path d="M6.53752634,9.43237661 C7.4501277,9.11536289 9.17295058,8.63471973 7.90134877,6.62080019 C7.4007955,5.82804613 8.2597004,4.90142144 7.76350031,4.23470522 C7.22677417,3.51354027 6.51415788,3.20039411 6.86496218,2.47378917 C7.21227285,1.75439197 7.25756797,0.895615772 6.77849773,0.596797206 C5.91307694,0.0570075817 5.16636177,1.14686128 4.29697044,2.24443059 C3.76701528,2.91347125 3.8663895,3.65549764 4.0492059,4.16301846 C4.28132677,4.80739848 5.30780366,5.64978634 5.09421564,6.35489503 C4.88062761,7.06001347 3.72993849,7.6452568 4.36018842,8.78450991 C4.74952241,9.4882708 5.79682242,9.68967741 6.53752634,9.43237661 Z" id="path-30"></path>
        <linearGradient x1="50%" y1="0%" x2="50%" y2="100%" id="linearGradient-31">
            <stop stop-color="#EEEEEE" offset="0%"></stop>
            <stop stop-color="#D8D8D8" offset="100%"></stop>
        </linearGradient>
        <linearGradient x1="49.150328%" y1="85.3035118%" x2="50%" y2="105.110229%" id="linearGradient-32">
            <stop stop-color="#FFFFFF" stop-opacity="0" offset="0%"></stop>
            <stop stop-color="#000000" stop-opacity="0.278654939" offset="100%"></stop>
        </linearGradient>
        <path d="M4.00142139,10.1801961 C4.61670458,10.2006138 5.87621531,8.34533637 5.36380004,7.12736783 C4.85138477,5.90939929 5.63274448,5.37569467 5.23930164,4.70897845 C4.81372521,3.98781349 4.60258497,3.74709473 4.88074179,3.02048978 C5.15612848,2.30109258 4.50811021,0.984582452 3.73988853,0.888849372 C2.97166685,0.793116291 3.53366044,2.13141919 2.84430991,3.22898849 C2.42410228,3.89802916 2.14869144,4.68756284 2.2936487,5.19508365 C2.47770004,5.83946368 3.30734787,6.15635399 3.13799143,6.86146267 C2.968635,7.56658112 2.2449645,7.80994716 2.74469702,8.94920027 C3.05340448,9.65296116 3.3861382,10.1597783 4.00142139,10.1801961 Z" id="path-33"></path>
        <linearGradient x1="50%" y1="0%" x2="50%" y2="100%" id="linearGradient-34">
            <stop stop-color="#EEEEEE" offset="0%"></stop>
            <stop stop-color="#D8D8D8" offset="100%"></stop>
        </linearGradient>
        <linearGradient x1="50%" y1="0%" x2="50%" y2="100%" id="linearGradient-35">
            <stop stop-color="#EEEEEE" offset="0%"></stop>
            <stop stop-color="#D8D8D8" offset="100%"></stop>
        </linearGradient>
        <linearGradient x1="57.4500121%" y1="58.9549084%" x2="68.173565%" y2="52.9069546%" id="linearGradient-36">
            <stop stop-color="#FFFFFF" stop-opacity="0.189220935" offset="0%"></stop>
            <stop stop-color="#000000" stop-opacity="0" offset="100%"></stop>
        </linearGradient>
        <linearGradient x1="47.7294526%" y1="85.3035118%" x2="50%" y2="105.110229%" id="linearGradient-37">
            <stop stop-color="#FFFFFF" stop-opacity="0" offset="0%"></stop>
            <stop stop-color="#000000" stop-opacity="0.278654939" offset="100%"></stop>
        </linearGradient>
        <path d="M5.44793862,7.86031384 C6.20843975,7.59613574 7.64412548,7.19559978 6.5844573,5.51733349 C6.16732959,4.85670511 6.88308367,4.08451787 6.46958359,3.52892102 C6.02231181,2.92795022 5.4284649,2.6669951 5.72080181,2.06149098 C6.01022738,1.46199331 6.04797331,0.746346477 5.64874811,0.497331005 C4.92756412,0.0475063181 4.30530147,0.955717735 3.5808087,1.87035882 C3.1391794,2.42789271 3.22199125,3.04624804 3.37433825,3.46918205 C3.56777231,4.0061654 4.42316972,4.70815529 4.2451797,5.29574585 C4.06718968,5.88334456 3.10828208,6.37104734 3.63349035,7.32042493 C3.95793534,7.90689234 4.83068535,8.07473117 5.44793862,7.86031384 Z" id="path-38"></path>
        <linearGradient x1="50%" y1="0%" x2="50%" y2="100%" id="linearGradient-39">
            <stop stop-color="#EEEEEE" offset="0%"></stop>
            <stop stop-color="#D8D8D8" offset="100%"></stop>
        </linearGradient>
        <linearGradient x1="49.150328%" y1="85.3035118%" x2="50%" y2="105.110229%" id="linearGradient-40">
            <stop stop-color="#FFFFFF" stop-opacity="0" offset="0%"></stop>
            <stop stop-color="#000000" stop-opacity="0.278654939" offset="100%"></stop>
        </linearGradient>
        <path d="M3.33451783,8.48349672 C3.84725381,8.50051153 4.8968461,6.95444697 4.46983337,5.93947319 C4.04282064,4.92449941 4.69395373,4.47974555 4.3660847,3.92414871 C4.01143768,3.32317791 3.83548748,3.12257894 4.06728483,2.51707482 C4.29677373,1.91757715 3.75675851,0.820485377 3.11657377,0.74070781 C2.47638904,0.660930243 2.94471703,1.77618266 2.37025826,2.69082374 C2.02008523,3.24835763 1.7905762,3.90630236 1.91137391,4.32923637 C2.06475004,4.86621973 2.75612322,5.13029499 2.61499286,5.71788556 C2.4738625,6.30548427 1.87080375,6.5082893 2.28724751,7.45766689 C2.54450373,8.0441343 2.82178184,8.46648192 3.33451783,8.48349672 Z" id="path-41"></path>
        <linearGradient x1="50%" y1="0%" x2="50%" y2="100%" id="linearGradient-42">
            <stop stop-color="#EEEEEE" offset="0%"></stop>
            <stop stop-color="#D8D8D8" offset="100%"></stop>
        </linearGradient>
        <filter x="-21.9%" y="-23.5%" width="143.8%" height="147.0%" filterUnits="objectBoundingBox" id="filter-43">
            <feGaussianBlur stdDeviation="1" in="SourceGraphic"></feGaussianBlur>
        </filter>
        <linearGradient x1="42.9185417%" y1="-4.20786808%" x2="53.5052287%" y2="69.0374465%" id="linearGradient-44">
            <stop stop-color="#40414B" offset="0%"></stop>
            <stop stop-color="#4D4D4D" offset="100%"></stop>
        </linearGradient>
        <linearGradient x1="55.2019306%" y1="28.2666167%" x2="36.0718937%" y2="101.027795%" id="linearGradient-45">
            <stop stop-color="#FFAE8B" offset="0%"></stop>
            <stop stop-color="#FD8E6E" offset="100%"></stop>
        </linearGradient>
        <linearGradient x1="-42.9338889%" y1="2.8328298%" x2="50%" y2="31.1558835%" id="linearGradient-46">
            <stop stop-color="#FFAE8B" offset="0%"></stop>
            <stop stop-color="#FD8E6E" offset="100%"></stop>
        </linearGradient>
        <linearGradient x1="66.8532435%" y1="30.1255869%" x2="17.2029833%" y2="107.189323%" id="linearGradient-47">
            <stop stop-color="#186FF1" offset="0.0395903716%"></stop>
            <stop stop-color="#3788FF" offset="100%"></stop>
        </linearGradient>
        <linearGradient x1="50%" y1="108.794515%" x2="54.5863525%" y2="36.509974%" id="linearGradient-48">
            <stop stop-color="#FF9678" offset="0%"></stop>
            <stop stop-color="#F97C57" offset="100%"></stop>
        </linearGradient>
        <linearGradient x1="37.2195975%" y1="53.7415143%" x2="64.7013327%" y2="42.4063851%" id="linearGradient-49">
            <stop stop-color="#186FF1" offset="0.0395903716%"></stop>
            <stop stop-color="#3788FF" offset="100%"></stop>
        </linearGradient>
        <linearGradient x1="2.37475818%" y1="84.3007515%" x2="50%" y2="22.0170136%" id="linearGradient-50">
            <stop stop-color="#FF9678" offset="0%"></stop>
            <stop stop-color="#F97C57" offset="100%"></stop>
        </linearGradient>
        <linearGradient x1="-9.96097915%" y1="60.9143076%" x2="99.8827465%" y2="45.059633%" id="linearGradient-51">
            <stop stop-color="#2F81FB" offset="0%"></stop>
            <stop stop-color="#3788FF" offset="99.9604096%"></stop>
        </linearGradient>
    </defs>
    <g id="Page-1" stroke="none" stroke-width="1" fill="none" fill-rule="evenodd">
        <g id="分组-22">
            <path d="M91.4109487,42.4824494 L91.4109487,42.5943396 L61.0713261,42.5943396 L61.0713261,42.2545374 C59.6494512,42.4768519 58.1683784,42.5943396 56.6467978,42.5943396 C45.8251428,42.5943396 37.0524582,36.6515532 37.0524582,29.3207547 C37.0524582,22.9563958 43.6645561,17.6382016 52.489089,16.3465886 C52.3135897,15.6323805 52.2222695,14.8988863 52.2222695,14.1509434 C52.2222695,6.82014488 60.9949542,0.877358491 71.8166091,0.877358491 C82.6382641,0.877358491 91.4109487,6.82014488 91.4109487,14.1509434 C91.4109487,14.8251244 91.3367523,15.4875661 91.1935893,16.1347256 C98.4317469,16.8946667 104.052458,22.5083947 104.052458,29.3207547 C104.052458,36.0647692 98.5439615,41.6340818 91.4109487,42.4824494 Z" id="合并形状-copy-4" fill="url(#linearGradient-1)"></path>
            <path d="M238.958119,59.3605703 L238.958119,59.4056604 L226.731703,59.4056604 L226.731703,59.2687251 C226.158709,59.3583146 225.561859,59.4056604 224.948685,59.4056604 C220.587719,59.4056604 217.052458,57.0108062 217.052458,54.0566038 C217.052458,51.4918621 219.717035,49.3487092 223.27319,48.8282085 C223.202466,48.5403933 223.165666,48.244806 223.165666,47.9433962 C223.165666,44.9891938 226.700927,42.5943396 231.061892,42.5943396 C235.422858,42.5943396 238.958119,44.9891938 238.958119,47.9433962 C238.958119,48.2150811 238.928219,48.4820352 238.870526,48.7428308 C241.787395,49.0490758 244.052458,51.3113244 244.052458,54.0566038 C244.052458,56.774341 241.832616,59.0186908 238.958119,59.3605703 Z" id="合并形状-copy-5" fill="url(#linearGradient-2)"></path>
            <path d="M63.7628641,50.9399052 L63.7628641,51 L47.4678384,51 L47.4678384,50.8174965 C46.7041675,50.9368988 45.9087021,51 45.0914805,51 C39.2793071,51 34.5676097,47.808205 34.5676097,43.8709262 C34.5676097,40.45271 38.1188834,37.5963754 42.8584279,36.9026665 C42.7641695,36.5190744 42.7151226,36.125124 42.7151226,35.7234134 C42.7151226,31.7861347 47.42682,28.5943396 53.2389933,28.5943396 C59.0511667,28.5943396 63.7628641,31.7861347 63.7628641,35.7234134 C63.7628641,36.0855074 63.7230142,36.4412964 63.6461231,36.7888776 C67.5336456,37.1970323 70.5524582,40.2120943 70.5524582,43.8709262 C70.5524582,47.4930507 67.5939146,50.4842577 63.7628641,50.9399052 Z" id="合并形状-copy-14" fill="url(#linearGradient-3)"></path>
            <path d="M297,161.5 C297,131.952766 230.514285,108 148.5,108 C66.4857147,108 0,131.952766 0,161.5 C1.31894495e-13,158.640422 297,162.38538 297,161.5 Z" id="椭圆形-copy-4" fill="url(#linearGradient-4)"></path>
            <ellipse id="椭圆形-copy-5" fill-opacity="0.67" fill="url(#linearGradient-5)" filter="url(#filter-6)" transform="translate(166.900239, 146.859696) rotate(16.000000) translate(-166.900239, -146.859696) " cx="166.900239" cy="146.859696" rx="22.65" ry="5"></ellipse>
            <path d="M158.845346,139.372078 C161.892328,139.957161 167.977968,142.10102 170.773071,140.947156 C173.568173,139.793292 174.544203,124.743408 174.544203,122.452788 C174.544203,117.81047 168.400504,122.560758 158.845346,122.560758 C149.290188,122.560758 141.544203,126.3241 141.544203,130.966418 C141.544203,135.608736 149.703219,137.616604 158.845346,139.372078 Z" id="椭圆形" fill="url(#linearGradient-7)" filter="url(#filter-8)" transform="translate(158.044203, 130.850016) rotate(12.000000) translate(-158.044203, -130.850016) "></path>
            <g id="椭圆形-copy-15" filter="url(#filter-10)" transform="translate(131.134699, 128.819525) rotate(11.000000) translate(-131.134699, -128.819525) " fill="black" fill-opacity="1">
                <use filter="url(#filter-11)" xlink:href="#path-9"></use>
            </g>
            <g id="分组" transform="translate(98.500000, 3.000000)">
                <g transform="translate(2.572440, 9.713535)">
                    <mask id="mask-13" fill="white">
                        <use xlink:href="#path-12"></use>
                    </mask>
                    <g id="Clip-2"></g>
                    <g id="Fill-1" mask="url(#mask-13)">
                        <use fill="url(#linearGradient-14)" xlink:href="#path-16"></use>
                        <use fill="url(#linearGradient-15)" xlink:href="#path-16"></use>
                    </g>
                </g>
                <polygon id="路径-11" fill="url(#linearGradient-17)" points="50.8493829 9.40741778 114.849383 0.709993543 114.849383 137.709994 50.8493829 127.361849"></polygon>
                <g transform="translate(2.572440, 0.709994)" fill="url(#linearGradient-18)" id="Fill-3">
                    <path d="M51.5459171,80.5581568 L51.8919103,129.093676 C51.9086311,131.657112 49.845534,133.749793 47.2846696,133.7678 L6.33784997,122.837501 C3.77698558,122.854221 1.68687777,120.789838 1.66887069,118.226401 L0.97173935,14.1428913 C0.955018488,11.5794545 3.01811567,9.48677422 5.57898006,9.47005336 L46.5257997,0.575840777 C49.0866641,0.559119915 51.1767719,2.62350331 51.1947789,5.18694014 L51.3028214,44.3214755 L51.5459171,80.5581568 Z"></path>
                </g>
                <g transform="translate(0.000000, 9.713535)">
                    <path d="M4.26079019,113.627435 L7.4,113.627435 L7.4,0.586465157 L4.26079019,0.586465157 C2.40470689,0.586465157 0.9,2.66635233 0.9,5.2335127 L0.9,108.979106 C0.9,111.546266 2.40470689,113.627435 4.26079019,113.627435" id="Fill-5" fill="url(#linearGradient-19)"></path>
                    <g id="矩形">
                        <use fill="black" fill-opacity="1" filter="url(#filter-22)" xlink:href="#path-21"></use>
                        <use fill="url(#linearGradient-20)" fill-rule="evenodd" xlink:href="#path-21"></use>
                    </g>
                </g>
            </g>
            <g id="分组-7-copy" transform="translate(217.052458, 94.466814)">
                <g id="tree-2" opacity="0.596912202" transform="translate(15.552916, 15.812494) scale(-1, 1) rotate(17.000000) translate(-15.552916, -15.812494) translate(3.552916, 3.312494)">
                    <g id="leaves">
                        <use fill="url(#linearGradient-23)" xlink:href="#path-26"></use>
                        <use fill="url(#linearGradient-24)" xlink:href="#path-26"></use>
                        <use fill="url(#linearGradient-25)" xlink:href="#path-26"></use>
                    </g>
                </g>
                <path d="M11.9114264,32.6361285 C12.526052,32.6361285 13.7574726,32.5848471 15.6056884,32.4822843 C13.6670956,28.8841666 14.0309631,26.4147775 16.6972908,25.0741169 C15.8883648,25.03109 15.610383,24.9575785 14.3853548,25.7472899 C12.6204423,27.8243277 13.4216457,27.0523928 12.9877821,22.9726974 C12.3663639,24.1684537 12.2214843,29.3167911 11.9114264,32.6361285 Z" id="路径-3" fill="#D0D0D2"></path>
            </g>
            <g id="分组-16" transform="translate(213.500000, 121.133535)">
                <g id="leaves">
                    <use fill="url(#linearGradient-27)" xlink:href="#path-30"></use>
                    <use fill="url(#linearGradient-28)" xlink:href="#path-30"></use>
                    <use fill="url(#linearGradient-29)" xlink:href="#path-30"></use>
                </g>
                <g id="leaves-copy" opacity="0.979980469" transform="translate(3.869106, 5.532178) rotate(-26.000000) translate(-3.869106, -5.532178) ">
                    <use fill="url(#linearGradient-31)" xlink:href="#path-33"></use>
                    <use fill="url(#linearGradient-32)" xlink:href="#path-33"></use>
                </g>
                <path d="M7.93149638,10.3008037 C8.57837226,10.3191698 8.2816103,9.52622595 9.36382853,7.55474057 C10.4460468,5.58325519 9.66255941,6.00813451 9.24891461,5.40841362 C8.80148629,4.75971531 9.57381108,3.80962571 9.86625031,3.15603405 C10.1557772,2.50892585 7.95575397,1.33652381 7.45832383,1.56847929 C6.96089369,1.80043477 7.27901172,3.16502463 7.23245006,3.59396907 C7.1858884,4.0229135 6.60249315,5.15811608 6.75489346,5.6146384 C6.94839522,6.19426756 7.20178455,6.68129957 7.02373224,7.31555503 C6.84567993,7.94981928 6.08485141,8.16873056 6.61024349,9.19350522 C6.93480203,9.82654832 7.2846205,10.2824377 7.93149638,10.3008037 Z" id="leaves-copy-2" fill="url(#linearGradient-34)" opacity="0.779738653" transform="translate(8.170143, 5.919835) rotate(25.000000) translate(-8.170143, -5.919835) "></path>
            </g>
            <g id="分组-16-copy-3" transform="translate(67.037307, 118.300148)">
                <g id="leaves">
                    <use fill="url(#linearGradient-35)" xlink:href="#path-38"></use>
                    <use fill="url(#linearGradient-36)" xlink:href="#path-38"></use>
                    <use fill="url(#linearGradient-37)" xlink:href="#path-38"></use>
                </g>
                <g id="leaves-copy" opacity="0.979980469" transform="translate(3.224255, 4.610148) rotate(-26.000000) translate(-3.224255, -4.610148) ">
                    <use fill="url(#linearGradient-39)" xlink:href="#path-41"></use>
                    <use fill="url(#linearGradient-40)" xlink:href="#path-41"></use>
                </g>
                <path d="M6.60958032,8.58400312 C7.14864355,8.59930819 6.90134192,7.93852163 7.80319044,6.29561714 C8.70503896,4.65271266 8.05213284,5.00677876 7.70742885,4.50701135 C7.33457191,3.96642942 7.9781759,3.17468809 8.22187526,2.63002837 C8.46314764,2.09077154 6.62979497,1.11376984 6.21526986,1.30706608 C5.80074474,1.50036231 6.0658431,2.63752053 6.02704172,2.99497422 C5.98824034,3.35242792 5.50207762,4.29843007 5.62907789,4.67886533 C5.79032935,5.16188963 6.00148712,5.56774964 5.8531102,6.09629586 C5.70473327,6.6248494 5.07070951,6.80727547 5.50853624,7.66125435 C5.7790017,8.18879027 6.07051708,8.56869806 6.60958032,8.58400312 Z" id="leaves-copy-2" fill="url(#linearGradient-42)" opacity="0.779738653" transform="translate(6.808453, 4.933195) rotate(25.000000) translate(-6.808453, -4.933195) "></path>
            </g>
            <path d="M135.799751,88.08288 L138.054669,90.2404289 L141.822041,94.879719 L149.490171,99.5735652 L149.186771,100.254953 L149.1,100.850749 C147.845903,100.32456 146.851306,99.8182926 146.116211,99.3319451 C144.771433,98.4422242 142.672174,96.6471101 142.173757,96.2208124 C139.383096,93.8339497 138.550963,92.0747371 137.821439,91.1447486 C137.400708,90.6084063 136.976065,90.3508825 136.720248,90.1010851 C136.300321,89.6910401 135.993489,89.2055159 135.799751,88.6445122 L135.799751,88.08288 Z" id="路径-17" fill="#B7B7B7" filter="url(#filter-43)"></path>
            <g id="分组-copy-2" transform="translate(149.100000, 117.047170) scale(-1, 1) translate(-149.100000, -117.047170) translate(134.600000, 85.547170)">
                <g id="分组-21" transform="translate(9.285125, 57.493228) rotate(19.000000) translate(-9.285125, -57.493228) translate(2.285125, 54.993228)" fill="#292242">
                    <path d="M12.8820721,0.735717681 C12.9365233,1.04452585 13.2451262,1.52065192 13.0203522,1.93567143 C12.9865485,1.99808613 12.626855,2.0897398 12.5578817,2.0949128 C11.0284002,2.21475379 11.1431972,1.91789985 11.0130102,1.94290265 C10.8802368,1.96876761 7.81237166,2.10497562 7.1786223,1.03870077 C7.27891257,0.879958235 7.37361374,0.394292134 7.78745912,0.478322679 C8.2013045,0.562353224 9.34397038,0.656891479 10.3384785,0.481532857 C10.5162781,0.450181999 10.7820904,0.111478424 10.8803773,0.0304348734 C11.0898835,-0.141998212 10.9274361,0.48395184 12.7103942,0.389113643 C12.7609746,0.386814535 12.8182005,0.502349214 12.8820721,0.735717681 Z" id="Fill-31"></path>
                    <path d="M6.75268986,4.143008 C6.7268249,4.20594608 6.48869571,4.29979195 6.41972248,4.30496495 C4.89024101,4.42480594 4.92772524,4.37116648 4.70973248,4.27343056 C3.43360667,4.53310506 1.35535468,3.93682909 0.644930371,3.20053981 C0.644930371,3.20053981 0.516468235,2.28793233 1.45787023,2.5530774 C2.26296434,2.72979052 3.00995329,2.72699149 3.83418344,2.63818845 C4.02299767,2.61663431 4.25654135,2.40476112 4.35482821,2.32457974 C4.56433441,2.15214665 4.53674511,2.72290016 6.31970322,2.62806197 C6.39557378,2.62461331 6.44126854,2.71082985 6.44816587,2.78670041 C6.47834166,3.13415307 6.94495275,3.67657651 6.75268986,4.143008 Z" id="Fill-33"></path>
                </g>
                <path d="M16.9951439,30.756931 C16.2491745,30.756931 16.5852183,34.8250894 16.2491745,37.1204875 C15.8144381,40.0891914 15.3664097,42.3862271 15.3664097,43.3832854 C15.3664097,45.1518573 15.3664097,57.355611 15.3664097,57.355611 C15.0756798,57.4918128 14.769686,57.5303123 14.4484283,57.4711097 C14.1271706,57.411907 13.7756356,57.2094969 13.3938232,56.8638793 C13.3938232,56.8638793 11.7975083,45.2659848 11.6433523,43.8170043 C11.5030621,42.5028514 10.7024784,36.3689215 10.7024784,36.3689215 C10.7024784,36.3689215 10.7016628,35.6090598 10.1535525,37.3127147 C9.65438057,38.5344857 8.88625322,44.1250793 8.88625322,44.1250793 L8.88625322,57.4711097 C8.38429457,57.4140398 8.01329102,57.3755403 7.77324256,57.355611 C7.5347299,57.3358093 7.1945292,57.2370064 6.75264045,57.0592025 C6.75264045,57.0592025 4.96102584,45.9784071 4.96102584,43.8170043 C4.96102584,41.6564337 4.62106382,31.2221694 4.62106382,31.2221694 L16.9951439,30.756931 Z" id="Fill-5" fill="url(#linearGradient-44)"></path>
                <path d="M6.36086918,16.4185875 C6.36086918,16.4185875 3.99410195,18.7580307 4.55575927,18.7580307 C5.11610471,18.7580307 5.70847427,18.5969365 5.70847427,19.2266635 C5.70847427,19.8563905 5.85229071,20.3446643 5.3807339,20.3446643 C4.90917709,20.3446643 3.54165617,20.1492375 2.00888999,19.2266635 C0.476123815,18.3040894 4.0234354,15.947597 4.0234354,15.947597 L6.36086918,16.4185875 Z" id="Fill-21" fill="url(#linearGradient-45)" transform="translate(3.992738, 18.146131) rotate(-42.000000) translate(-3.992738, -18.146131) "></path>
                <g id="分组" transform="translate(12.767802, 0.784775)" fill="url(#linearGradient-46)">
                    <path d="M11.8748322,3.72258442 L12.0182795,3.55510935 C12.1738475,3.18446955 11.574849,1.82158226 11.8869379,1.76494771 C12.2284017,1.64257106 12.2700668,2.54418711 12.5542651,2.5001148 C12.8384633,2.45604249 13.2840619,1.80008132 13.8821101,1.03087281 C14.2363547,0.849738647 14.4443403,0.744118756 14.729892,0.843759069 C15.0282099,0.947854035 15.0064924,1.4088572 15.0304861,1.64509626 C15.0568246,1.88499805 14.8405865,2.80193993 12.9760471,4.28052952 C12.9507227,4.31844637 12.9235007,4.35667486 12.8942375,4.39511083 C12.8236527,4.4878211 12.4467588,4.82754344 12.3561258,4.9569322 C11.870619,5.65004741 10.9630767,6.76989909 10.2297275,7.69983918 C9.14784509,8.96370312 7.68434085,9.96015612 6.38440989,10.8601943 C5.08447892,11.7602324 2.6913589,13.3782074 2.30537651,12.1485453 L0.915710567,9.56869838 C0.752114578,8.98510015 3.82775114,8.80810674 5.52773951,8.1621458 C6.69741845,7.71769163 7.76085501,7.271212 9.18329862,6.20117982 C10.0058035,5.58245116 11.3701268,4.15562235 11.8748322,3.72258442 Z" id="合并形状"></path>
                </g>
                <path d="M7.34282262,9.85484917 C7.30961368,9.33189239 4.84141845,11.8063792 2.32197421,17.4164506 C2.57029176,18.8839878 5.58908652,18.325083 5.58908652,18.325083 L7.34282262,9.85484917 Z" id="Fill-27" fill="url(#linearGradient-47)" transform="translate(4.832398, 14.108037) rotate(13.000000) translate(-4.832398, -14.108037) "></path>
                <path d="M7.91169692,10.0402844 C7.91169692,10.0402844 8.34235503,8.51258995 8.34235503,7.69042445 C8.34235503,6.86744332 9.90920019,8.16023331 9.90920019,8.16023331 L9.90920019,10.3534903 C9.90920019,10.3534903 8.61722584,10.7841484 7.91169692,10.0402844" id="Fill-7" fill="url(#linearGradient-48)" transform="translate(8.910449, 8.946921) rotate(-14.000000) translate(-8.910449, -8.946921) "></path>
                <path d="M10.3583632,9.96606504 C10.3583632,9.96606504 12.7778189,11.240829 14.1098288,14.0263954 C15.4394682,16.8163074 16.9951439,22.730479 16.9951439,31.4590607 C16.9951439,32.6343979 4.32456451,33.0914216 3.12762968,32.4422581 C3.12762968,28.3823342 4.07559479,20.7549409 4.62106382,17.4087827 C5.16653284,14.0626246 5.7919676,11.3918768 8.16058725,10.0599361 C8.93573943,10.3105613 9.66833141,10.2792709 10.3583632,9.96606504 Z" id="Fill-9" fill="url(#linearGradient-49)"></path>
                <path d="M10.4463602,3.85584579 C10.4463602,3.85584579 9.9308755,4.24164369 9.64132317,4.51977706 C9.40070925,4.7530502 9.17722379,5.13803246 9.17722379,5.13803246 L9.86480863,5.4357412 L10.4463602,3.85584579 Z" id="Fill-15" fill="#FD8E6E" transform="translate(9.811792, 4.645793) scale(-1, 1) translate(-9.811792, -4.645793) "></path>
                <path d="M9.10704167,8.19867723 C9.10704167,8.19867723 7.13563888,8.52167082 5.35591158,7.91646566 C4.46604793,7.61467872 6.61362904,2.38723956 7.05815304,2.53894867 C7.50349269,2.68984214 9.14129856,2.25347454 9.72855963,3.44594077 C10.3166363,4.63840699 10.7530039,6.27621287 10.7530039,6.27621287 L9.10704167,8.19867723 Z" id="Fill-11" fill="url(#linearGradient-50)" transform="translate(7.947565, 5.410243) scale(-1, 1) translate(-7.947565, -5.410243) "></path>
                <path d="M4.72104528,6.28243002 C4.53592838,6.4805823 4.18514284,6.585991 3.98781946,6.78958241 C3.62853066,7.16028411 3.46130911,7.6577879 3.341796,7.87628103 C3.13348613,8.25744379 3.90225246,8.93154478 4.72104528,8.66795887 C5.23490801,8.5025361 6.03670808,8.29393513 6.03670808,8.29393513 C6.03670808,8.29393513 7.9200217,8.10633784 8.572534,6.6732577 C9.02603005,5.33805441 9.16876712,6.37962717 9.62226317,5.04442388 C9.92486575,4.15456023 9.4795261,4.00366676 9.4795261,4.00366676 C9.4795261,4.00366676 9.32863263,4.44819076 8.74055592,3.25572453 C8.15247921,2.06325831 8.59781886,2.21415178 7.70795521,1.91236484 C6.81809156,1.60976226 6.23001485,0.417296031 4.14768497,0.702770162 C3.55471442,0.772915235 3.56939595,1.55837692 3.67379792,2.08609624 C3.73660222,2.40338034 3.74720555,2.36667653 3.98781946,2.63420657 C4.61667819,3.33239473 4.0269702,4.23849821 3.98781946,4.72135732 C3.97232229,4.90324512 3.57710393,5.64099274 3.85768422,5.88160665 C3.85768422,5.88160665 4.34427819,5.42981811 4.4658086,5.41024274 C4.58815466,5.39148302 4.97168319,5.4193631 4.97168319,5.66948545 C4.97168319,5.83623369 4.88813722,6.04054855 4.72104528,6.28243002 Z" id="Fill-13" fill="#282250" transform="translate(6.517454, 4.693259) scale(-1, 1) translate(-6.517454, -4.693259) "></path>
            </g>
            <path d="M144.899595,94.7739036 C144.098086,94.6217187 149.283277,95.5126621 151.514635,95.3461693 C151.586411,95.4187613 152.541498,95.8843875 152.880335,97.2818958 C152.944108,97.5449223 153.210073,98.0636966 152.880335,98.2605509 C151.658618,98.9899188 150.045071,99.5714822 148.039695,100.005241 C147.610307,99.2046926 147.200622,98.405007 146.81064,97.606184 C146.525997,97.0231309 145.888981,96.0790375 144.899595,94.7739036 Z" id="Fill-25" fill="url(#linearGradient-51)" transform="translate(148.929161, 97.380786) scale(-1, 1) rotate(-10.000000) translate(-148.929161, -97.380786) "></path>
        </g>
    </g>
</svg>