<?xml version="1.0" encoding="UTF-8"?>
<svg width="146px" height="53px" viewBox="0 0 146 53" version="1.1" xmlns="http://www.w3.org/2000/svg" xmlns:xlink="http://www.w3.org/1999/xlink">
    <!-- Generator: Sketch 61 (89581) - https://sketch.com -->
    <title>logo白色</title>
    <desc>Created with Sketch.</desc>
    <defs>
        <polygon id="path-1" points="0 51.9773243 145.745079 51.9773243 145.745079 0.304249433 0 0.304249433"></polygon>
    </defs>
    <g id="终稿" stroke="none" stroke-width="1" fill="none" fill-rule="evenodd">
        <g id="logo白色">
            <polygon id="Fill-1" fill="#FFFFFF" points="26.696249 0.331165079 26.696249 9.22988163 17.7975324 9.22988163 17.7975324 16.4093737 26.696249 16.4093737 26.696249 25.3077592 33.875741 25.3077592 33.875741 16.4093737 42.7741265 16.4093737 42.7741265 9.22988163 33.875741 9.22988163 33.875741 0.331165079"></polygon>
            <polygon id="Fill-2" fill="#FFFFFF" points="8.89855102 9.2297161 8.89855102 18.1284327 0.00016553288 18.1284327 0.00016553288 25.3079247 8.89855102 25.3079247 8.89855102 34.2063102 16.0783741 34.2063102 16.0783741 25.3079247 24.9774218 25.3079247 24.9774218 18.1284327 16.0783741 18.1284327 16.0783741 9.2297161"></polygon>
            <polygon id="Fill-3" fill="#FFFFFF" points="35.5948993 18.1284989 42.7743914 18.1284989 42.7743914 27.0272154 51.6727769 27.0272154 51.6727769 34.2063764 42.7743914 34.2063764 42.7743914 43.105424 35.5948993 43.105424 35.5948993 34.2063764 26.6961828 34.2063764 26.6961828 27.0272154 35.5948993 27.0272154"></polygon>
            <polygon id="Fill-4" fill="#FFFFFF" points="17.7974 27.0271161 17.7974 35.9258327 8.89868345 35.9258327 8.89868345 43.1056558 17.7974 43.1056558 17.7974 52.0040413 24.9772231 52.0040413 24.9772231 43.1056558 33.8756086 43.1056558 33.8756086 35.9258327 24.9772231 35.9258327 24.9772231 27.0271161"></polygon>
            <g id="编组" transform="translate(0.000000, 0.026816)">
                <path d="M65.2259469,14.2320535 C64.6942553,14.2320535 64.1837519,14.3396499 63.6944367,14.5545116 C63.3014617,14.7273279 62.8032077,15.0461442 62.2000059,15.5109605 L62.2000059,10.6611782 L59.1336748,10.6611782 L59.1336748,10.9737043 L59.1336748,24.3295592 L61.7385002,24.3295592 L62.2000059,24.3295592 L62.2000059,17.340761 C62.4300966,17.1792009 63.0832893,16.7597406 63.675566,16.7597406 C64.4088766,16.7597406 65.0306181,16.8113868 65.1981374,18.0078585 C65.1981374,18.0078585 65.2752757,18.7799039 65.2752757,19.5132145 C65.2752757,20.2465252 65.2838834,24.3295592 65.2838834,24.3295592 L65.709634,24.3295592 L68.3316748,24.3295592 L68.3316748,17.8724526 C68.3316748,15.4457406 67.2964322,14.2320535 65.2259469,14.2320535" id="Fill-5" fill="#FFFFFF"></path>
                <mask id="mask-2" fill="white">
                    <use xlink:href="#path-1"></use>
                </mask>
                <g id="Clip-8"></g>
                <polygon id="Fill-7" fill="#FFFFFF" mask="url(#mask-2)" points="69.9598231 13.079746 73.1834104 13.079746 73.1834104 10.6652834 69.9598231 10.6652834"></polygon>
                <polygon id="Fill-9" fill="#FFFFFF" mask="url(#mask-2)" points="70.0545079 24.3442585 73.0883946 24.3442585 73.0883946 14.4592971 70.0545079 14.4592971"></polygon>
                <path d="M80.9337923,14.2236444 C80.4021007,14.2236444 79.8915973,14.3312408 79.4022821,14.5461025 C79.008976,14.7192499 78.5097288,15.0383973 77.9058649,15.5042068 L77.9058649,14.4739302 L77.4463456,14.4739302 L77.4463456,14.4696263 L74.8415202,14.4696263 L74.8415202,24.3469732 L77.4463456,24.3469732 L77.4463456,24.3439937 L77.9058649,24.3439937 L77.9058649,17.3432771 C77.9058649,17.3432771 78.7166449,16.7642431 79.4112209,16.7599392 C80.1061279,16.7556354 80.5990848,16.8930277 80.8050077,17.5319846 C80.8050077,17.5319846 80.9083002,17.8236535 80.9467039,18.4583066 C80.9536562,18.5708689 80.9831211,18.8284381 80.9831211,19.1763882 C80.9831211,20.3109506 80.9811347,24.3469732 80.9811347,24.3469732 L81.4174794,24.3469732 L81.4174794,24.3469732 L84.0395202,24.3469732 L84.0395202,17.8640435 C84.0395202,15.4370005 83.0042776,14.2236444 80.9337923,14.2236444" id="Fill-10" fill="#FFFFFF" mask="url(#mask-2)"></path>
                <path d="M88.5249977,20.3066467 C89.1738866,19.9825333 90.7735964,19.7656853 91.20961,19.7110594 L91.20961,21.7593633 C90.9351565,22.0586467 90.3948571,22.442683 89.4086122,22.4939982 C87.7615601,22.5797442 87.7701678,20.6840617 88.5249977,20.3066467 M93.0294785,15.0049596 C92.2898776,14.4692952 91.0894331,14.201463 89.4284762,14.201463 C88.3627755,14.201463 87.171932,14.3603746 85.8569388,14.6778667 L85.8569388,16.0173587 L85.8552834,16.0176898 L85.8552834,17.0645197 L86.054585,17.0645197 C86.054585,17.0645197 87.7185215,16.3523973 88.7564127,16.3523973 C89.7946349,16.3523973 90.1889342,16.5152816 90.3779728,16.5755356 C90.5663492,16.6354585 91.2185488,16.9013043 91.1927256,17.8448417 C91.1927256,17.8448417 88.7137052,18.0166649 87.7959909,18.2739029 C86.8779456,18.531141 84.8793016,19.0631637 85.0236463,21.7050685 C85.0236463,21.7050685 85.0060998,21.8858304 85.0696644,22.186107 C85.1709705,22.8035447 85.4388027,23.3266286 85.8738231,23.7553587 C85.8923628,23.7732363 85.9109025,23.7907828 85.9291111,23.8079982 C85.933746,23.8136263 85.938381,23.8189234 85.9430159,23.8242204 L85.9443401,23.822234 C86.4998685,24.335717 87.1904717,24.592624 88.0168118,24.592624 C88.5779683,24.592624 89.1066803,24.5062159 89.6029478,24.3333995 C90.0273741,24.1854132 90.5630385,23.8493814 91.20961,23.3256354 L91.20961,24.3297578 L92.8824853,24.3297578 L92.8824853,24.3290957 L94.1392109,24.3290957 L94.1392109,17.5604562 C94.1392109,16.3927873 93.7694104,15.540624 93.0294785,15.0049596" id="Fill-11" fill="#FFFFFF" mask="url(#mask-2)"></path>
                <path d="M105.789249,20.2242113 C105.797857,17.2240934 102.950692,16.5066739 100.838161,16.129259 C98.6766327,15.7435673 98.8050862,14.8940526 98.8050862,14.8940526 C98.753771,13.5045696 100.619989,13.4145197 100.619989,13.4145197 C103.25759,13.2364063 104.981449,14.8940526 104.981449,14.8940526 L105.290002,14.8940526 L105.286692,14.6851501 L105.286692,12.2044744 C105.286692,12.2044744 105.286029,12.2041433 105.285698,12.2041433 L105.285698,11.8783746 C105.285698,11.8783746 103.131122,11.0199211 101.104007,11.0199211 C99.0772222,11.0199211 97.8353946,11.4946694 96.6485238,12.4259574 C95.4643016,13.3549279 94.5042109,16.537463 97.0057438,18.1838531 C97.012034,18.188488 97.0186553,18.1924608 97.0252766,18.1970957 C97.0252766,18.1970957 97.4639388,18.7056127 99.8803878,19.2737215 C102.297168,19.8418304 102.656043,20.2235492 102.291209,21.4286286 C101.925712,22.6337079 98.0178118,22.6154993 95.6622789,20.4427147 L95.4358299,20.4427147 L95.4358299,23.5918122 C95.4358299,23.5918122 95.4427823,23.5934676 95.4556939,23.5967782 C97.0186553,24.2608961 98.612737,24.5929551 100.237939,24.5929551 C101.912469,24.5929551 103.25759,24.2142159 104.272637,23.4560753 C105.174129,22.7830186 105.674701,21.9186059 105.776338,20.8625061 C105.790905,20.7694766 105.796864,20.6728054 105.794546,20.5714993 L105.794215,20.5711683 C105.79554,20.5317714 105.796202,20.4920435 105.796202,20.4519846 C105.796202,20.3748463 105.793222,20.2990322 105.789249,20.2242113" id="Fill-12" fill="#FFFFFF" mask="url(#mask-2)"></path>
                <path d="M119.937775,22.4791002 C118.527104,22.4791002 117.950718,21.4686875 117.950718,19.4472 C117.950718,17.3853224 118.517172,16.3543837 119.906986,16.3543837 C121.2968,16.3543837 121.9149,17.3853224 121.9149,19.4472 C121.9149,21.4686875 121.307394,22.4791002 119.937775,22.4791002 M119.906986,14.1981524 C118.328795,14.1981524 117.094251,14.659327 116.203353,15.5813451 C115.312124,16.5033633 114.866841,17.7845878 114.866841,19.4250186 C114.866841,21.0601524 115.308151,22.337073 116.190773,23.2564426 C117.073063,24.1758122 118.311911,24.6353315 119.906986,24.6353315 C121.496764,24.6353315 122.733956,24.1758122 123.619557,23.2564426 C124.504827,22.337073 124.947462,21.0601524 124.947462,19.4250186 C124.947462,17.7845878 124.504827,16.5033633 123.619557,15.5813451 C122.733956,14.659327 121.496764,14.1981524 119.906986,14.1981524" id="Fill-13" fill="#FFFFFF" mask="url(#mask-2)"></path>
                <path d="M139.074601,18.1754109 C139.157698,16.7134245 139.820161,16.137039 141.061989,16.137039 C142.23032,16.137039 142.824583,16.7134245 142.844116,18.1754109 L139.074601,18.1754109 Z M145.744914,18.9073973 C145.744914,15.7679007 144.268361,14.1983179 141.315916,14.1983179 C139.703295,14.1983179 138.439286,14.6690934 137.522896,15.6109755 C136.606506,16.5528576 136.14798,17.8440141 136.14798,19.484776 C136.14798,21.136463 136.631667,22.4008032 137.599041,23.2774653 C138.566415,24.1544585 139.97212,24.5927896 141.816156,24.5927896 C142.987136,24.5927896 144.263063,24.3382 145.592293,23.8290209 L145.592293,21.3168939 L145.592293,21.277166 L145.592293,21.2761728 L145.587989,21.2761728 L145.54495,21.2761728 L145.394977,21.2761728 C143.79924,22.5113791 141.985331,22.4209982 141.985331,22.4209982 C139.361304,22.4209982 139.084533,20.5729891 139.063345,19.978395 L145.744914,19.978395 L145.744914,18.9073973 Z" id="Fill-14" fill="#FFFFFF" mask="url(#mask-2)"></path>
                <path d="M52.2241669,11.1061637 C49.521015,11.5047669 47.6312916,13.4756014 47.215142,16.5528576 C47.2118313,16.5763633 47.2088517,16.6002 47.2058721,16.6240367 C47.2022304,16.6501909 47.1989197,16.6766762 47.1959401,16.7031615 C47.1916363,16.7409029 47.1873324,16.7783134 47.1830286,16.8160549 C47.1817043,16.8306218 47.18038,16.8451887 47.1787247,16.8600866 C47.1740898,16.9044494 47.1697859,16.9491433 47.1661442,16.9941683 C47.165151,17.0041002 47.1644889,17.0140322 47.1634957,17.0239642 C47.1595229,17.0719687 47.1555501,17.1196422 47.1525705,17.1676467 C47.1519084,17.1775787 47.1512463,17.1878417 47.1505841,17.1977737 C47.1476045,17.2451161 47.1442939,17.2927896 47.1419764,17.3407941 C47.1413143,17.3550299 47.1409832,17.3699279 47.1403211,17.3844948 C47.1383347,17.4281955 47.1360172,17.4715651 47.134693,17.5155968 C47.1336998,17.5410889 47.1333687,17.5672431 47.1323755,17.5927351 C47.1317134,17.6265039 47.1303891,17.6602726 47.130058,17.6940413 C47.1287338,17.7552884 47.1284027,17.8165356 47.1284027,17.8784449 C47.1284027,19.9922998 47.698498,21.639683 48.8383574,22.8199324 C49.9788789,24.0001819 51.540185,24.590141 53.5226068,24.590141 C53.589151,24.590141 53.6563574,24.5894789 53.7235637,24.5878236 L53.7258812,24.5878236 C56.5220626,24.5878236 57.974117,23.4645175 57.974117,23.4645175 L57.974117,20.8517465 L57.974117,20.426658 L57.6625841,20.426658 C55.5007247,22.485556 53.7682576,22.1250254 53.7682576,22.1250254 C51.4352372,21.9194336 50.5771147,20.1349891 50.5257995,17.7847533 C50.4744844,15.4345175 51.7782213,13.5133429 53.8367882,13.4444812 C55.8956862,13.3759506 57.6281533,15.1944948 57.6281533,15.1944948 L57.974117,15.1944948 L57.974117,14.8789891 L57.974117,12.2235107 L57.974117,12.0722136 C56.3757315,11.2488531 54.5747338,10.7598689 52.2241669,11.1061637" id="Fill-15" fill="#FFFFFF" mask="url(#mask-2)"></path>
                <path d="M111.336554,14.1922925 L111.337547,14.1929546 C109.728899,14.2052041 108.441384,14.6643923 107.475665,15.5715125 C106.496373,16.4908821 106.006727,17.784356 106.006727,19.4522653 C106.006727,21.1089184 106.490745,22.3841837 107.45845,23.2777302 C108.40894,24.1557166 109.727575,24.6019932 111.413361,24.6178844 L111.414355,24.6185465 C111.432894,24.6185465 111.451103,24.6182154 111.46898,24.6182154 C111.48123,24.6182154 111.49381,24.6185465 111.50606,24.6185465 C111.644445,24.6185465 111.785148,24.6125873 111.928831,24.6003379 C113.59045,24.4828095 114.691575,23.8292857 114.691575,23.8292857 L114.691575,21.233068 L114.322105,21.233068 C113.845371,21.6316712 113.164699,22.3997438 111.569956,22.3997438 C109.975543,22.3997438 109.109806,21.2718027 109.109806,19.4827234 C109.109806,17.693644 109.994745,16.3905692 111.550423,16.3905692 C113.106432,16.3905692 114.322105,17.5877029 114.322105,17.5877029 L114.691575,17.5877029 L114.691575,15.0096939 C112.950831,14.0760884 111.336554,14.1922925 111.336554,14.1922925" id="Fill-16" fill="#FFFFFF" mask="url(#mask-2)"></path>
                <path d="M129.10578,17.094746 C129.475912,16.8762426 130.00661,16.6795896 130.315164,16.6097347 C130.770048,16.5067732 132.622692,16.193254 132.579985,19.3734717 C132.552506,21.3959524 131.699681,22.0259705 131.081912,22.2166644 C130.841558,22.2679796 130.578692,22.2938027 130.292982,22.2938027 C129.863259,22.2938027 129.467635,22.2464603 129.10578,22.1517755 L129.10578,17.094746 Z M135.513227,17.3427143 C135.457608,17.1040159 135.389078,16.8785601 135.307966,16.6660159 C134.708406,14.9659932 133.737722,14.3061791 132.211177,14.1982517 C130.713436,14.0923107 129.412678,15.2242245 129.10578,15.513907 L129.10578,14.4750227 L127.09886,14.4750227 L127.09886,14.4773401 L126.101359,14.4773401 L126.101359,27.0187732 L128.706184,27.0187732 L128.706184,27.0167868 L129.10578,27.0167868 L129.10578,23.8137256 C129.712955,24.1990862 131.586125,25.1614943 133.471876,24.0037574 C135.693327,22.6397664 136.088288,19.5519161 135.513889,17.3447007 C135.513558,17.3440385 135.513227,17.3433764 135.513227,17.3427143 L135.513227,17.3427143 Z" id="Fill-17" fill="#FFFFFF" mask="url(#mask-2)"></path>
                <path d="M113.947239,30.8225202 L113.947239,31.5333184 L113.078523,31.5333184 L113.078523,29.7958853 C113.710196,29.7958853 113.998886,30.1392005 113.947239,30.8225202 L113.947239,30.8225202 Z M113.078523,34.0610054 L113.078523,32.3232413 L113.947239,32.3232413 L113.947239,32.8761211 C113.998886,33.666044 113.710196,34.0610054 113.078523,34.0610054 L113.078523,34.0610054 Z M113.236441,36.5095678 C114.131312,36.4575905 114.525942,36.7466109 114.421326,37.3786154 L114.421326,37.5362027 C114.525942,38.2215088 114.131312,38.5115224 113.236441,38.4052503 L113.078523,38.4052503 L113.078523,36.5095678 L113.236441,36.5095678 Z M110.472042,31.5333184 L109.524201,31.5333184 L109.524201,30.4278898 C109.629149,29.9538036 109.944985,29.7439079 110.472042,29.7958853 L110.472042,31.5333184 Z M110.472042,34.0610054 C109.997956,34.0093592 109.682119,33.7451687 109.524201,33.2710825 L109.524201,32.3232413 L110.472042,32.3232413 L110.472042,34.0610054 Z M110.472042,38.4052503 L110.313793,38.4052503 C109.682119,38.4582209 109.287158,38.1956857 109.128908,37.6156585 L109.128908,37.1415723 C109.287158,36.6674862 109.602995,36.4575905 110.077081,36.5095678 L110.472042,36.5095678 L110.472042,38.4052503 Z M120.819171,29.0062934 C120.923788,28.3223116 121.029067,27.8214091 121.135008,27.5052413 L118.291484,27.5052413 C117.975317,29.4538943 117.632332,30.9016449 117.264849,31.8494862 L117.264849,31.5333184 L116.55372,31.5333184 L116.55372,30.7437265 C116.605366,29.5863206 115.94787,29.0334408 114.578913,29.0850871 L113.078523,29.0850871 L113.078523,27.584366 L110.472042,27.584366 L110.472042,29.0850871 C109.944985,29.1380576 109.629149,29.4538943 109.524201,30.0325973 L109.524201,29.0850871 L106.996514,29.0850871 L106.996514,31.5333184 L106.285716,31.5333184 L106.285716,32.3232413 L106.996514,32.3232413 L106.996514,34.7721347 L109.524201,34.7721347 L109.524201,33.7451687 C109.629149,34.3768422 109.944985,34.7198263 110.472042,34.7721347 L110.472042,35.7987696 C109.682119,35.7467923 109.234187,36.0629601 109.128908,36.7466109 L109.128908,35.7987696 L106.601883,35.7987696 L106.601883,39.1160485 L109.128908,39.1160485 L109.128908,38.3261256 C109.234187,38.9061528 109.707942,39.1693501 110.550836,39.1160485 L115.368836,39.1160485 C116.526573,39.2223206 117.053629,38.7743887 116.948682,37.7732458 L116.948682,37.220366 C117.1066,36.1679079 116.447779,35.6938218 114.974205,35.7987696 L113.078523,35.7987696 L113.078523,34.7721347 L114.815956,34.7721347 C116.026663,34.8251052 116.605366,34.2722254 116.55372,33.1131642 L116.55372,32.3232413 L117.1066,32.3232413 C116.948682,32.5344612 116.816586,32.7715043 116.71197,33.0343705 C118.975135,33.087341 120.133865,32.5874317 120.187167,31.5333184 C120.187167,31.4816721 120.21299,31.4028785 120.265961,31.2966063 C120.265961,31.138688 120.292115,31.0337401 120.345085,30.9807696 L124.610205,30.9807696 L124.610205,30.2696404 L120.503004,30.2696404 C120.554981,30.0067741 120.660922,29.5863206 120.819171,29.0062934 L120.819171,29.0062934 Z" id="Fill-18" fill="#FFFFFF" mask="url(#mask-2)"></path>
                <path d="M113.157416,41.5646771 C112.630359,41.9334844 112.13045,42.3287769 111.656695,42.7495615 C111.603724,42.6975841 111.498776,42.6187905 111.340858,42.5125184 C110.866772,42.1447043 110.497965,41.8288676 110.235098,41.5646771 L110.235098,41.327634 L113.157416,41.327634 L113.157416,41.5646771 Z M121.845575,40.063956 C122.05547,39.4322825 122.371638,38.4582871 122.793416,37.1416385 C123.583339,34.9297882 124.136219,33.2453256 124.452055,32.0862644 L121.845575,32.0862644 C121.739634,32.4554027 121.555561,33.0082825 121.292695,33.7452349 C120.976858,34.8509946 120.739815,35.6405864 120.582228,36.1146726 C120.318037,35.2731034 120.108141,34.6410989 119.950223,34.2193211 C119.843951,33.851176 119.765157,33.5611624 119.71318,33.3502735 L117.106699,33.3502735 C117.422536,34.4560331 117.922445,36.0630263 118.60742,38.1682735 C118.870287,39.0111669 119.081507,39.6428404 119.239094,40.063956 C118.185312,43.1183687 117.290441,45.0918517 116.55382,45.9877156 C116.079733,45.8297973 115.053098,45.1981238 113.473253,44.0920331 C114.263176,43.5133302 114.89518,43.0395751 115.368935,42.6704367 C115.526854,42.5125184 115.657956,42.4075705 115.763897,42.3546 L115.763897,41.327634 L117.264618,41.327634 L117.264618,40.5377111 L115.763897,40.5377111 L115.763897,39.3528268 L113.157416,39.3528268 L113.157416,40.5377111 L110.235098,40.5377111 L110.235098,39.3528268 L107.628618,39.3528268 L107.628618,40.5377111 L106.285815,40.5377111 L106.285815,41.327634 L107.628618,41.327634 L107.628618,42.3546 C108.365239,42.9862735 109.129008,43.5663007 109.919262,44.0920331 C108.286114,45.3027406 106.996613,46.0668404 106.048441,46.3826771 C109.155162,46.4346544 110.97172,46.145634 111.498776,45.5139605 C111.498776,45.4076884 111.550423,45.3557111 111.656695,45.3557111 L111.893738,45.5139605 C112.314522,46.145634 114.13108,46.4346544 117.343742,46.3826771 C118.870287,46.4346544 119.923076,45.5656068 120.502772,43.7761964 C120.819271,45.6718789 122.187566,46.4876249 124.610305,46.2247587 C123.767411,45.4348358 122.845724,43.3812349 121.845575,40.063956 L121.845575,40.063956 Z" id="Fill-19" fill="#FFFFFF" mask="url(#mask-2)"></path>
                <path d="M134.909132,37.2307615 L133.169381,37.2307615 L133.169381,35.3330925 C133.32763,34.8583442 133.695776,34.6213011 134.276465,34.6213011 L134.909132,34.6213011 L134.909132,37.2307615 Z M134.909132,40.6314689 L134.197671,40.6314689 C133.722923,40.6314689 133.379608,40.3944259 133.169381,39.9196776 L133.169381,37.9425528 L134.909132,37.9425528 L134.909132,40.6314689 Z M137.914215,37.9425528 L139.733091,37.9425528 L139.733091,39.6823034 C139.785399,40.3686027 139.416923,40.6847705 138.626338,40.6314689 L137.914215,40.6314689 L137.914215,37.9425528 Z M137.914215,34.6213011 L138.626338,34.6213011 C139.416923,34.5693238 139.785399,34.8583442 139.733091,35.4910109 L139.733091,37.2307615 L137.914215,37.2307615 L137.914215,34.6213011 Z M137.914215,41.3432603 L140.128714,41.3432603 C142.131662,41.3962308 143.054673,40.9218136 142.896424,39.9196776 L142.896424,35.5701356 C143.001372,34.4110744 142.23661,33.8575324 140.603132,33.9095098 L137.914215,33.9095098 L137.914215,32.3276776 L143.529091,32.3276776 L143.529091,31.5370925 L137.914215,31.5370925 L137.914215,30.1923034 L134.909132,30.1923034 L134.909132,31.5370925 L129.610424,31.5370925 L129.610424,32.3276776 L134.909132,32.3276776 L134.909132,33.9095098 L134.671757,33.9095098 C133.827871,33.9095098 133.32763,34.2260086 133.169381,34.8583442 L133.169381,33.9886345 L130.005717,33.9886345 L130.005717,41.2641356 L133.169381,41.2641356 L133.169381,40.3944259 C133.27466,41.0270925 133.774569,41.3432603 134.671757,41.3432603 L134.909132,41.3432603 L134.909132,43.2409293 L129.373381,43.2409293 L129.373381,43.9530517 L134.909132,43.9530517 L134.909132,46.2463442 L137.914215,46.2463442 L137.914215,43.9530517 L143.608215,43.9530517 L143.608215,43.2409293 L137.914215,43.2409293 L137.914215,41.3432603 Z" id="Fill-20" fill="#FFFFFF" mask="url(#mask-2)"></path>
                <path d="M137.914282,28.8480771 L137.914282,27.3457007 L134.197406,27.3457007 L134.197406,28.8480771 L132.220613,28.8480771 C130.322282,28.7431293 129.294322,29.1917234 129.136073,30.1925351 L129.136073,27.36722 L126.1002,27.36722 L126.106159,41.9758277 C126.088944,42.6051837 126.1002,43.306712 126.1002,44.0257868 C126.1002,44.6015102 126.113443,45.1206213 126.08166,45.4404308 C126.04127,45.6304626 125.91679,45.9314014 125.536395,46.1624853 L128.628218,46.1624853 C128.628218,46.1624853 129.136735,46.0343628 129.136735,45.5162449 C129.136735,45.1484308 129.143688,42.6432562 129.136073,42.450576 L129.136073,42.2823946 L129.136073,30.7460771 C129.55752,29.9035147 130.453384,29.5078912 131.824989,29.5598685 L143.766531,29.5598685 L143.766531,28.8480771 L137.914282,28.8480771 Z" id="Fill-21" fill="#FFFFFF" mask="url(#mask-2)"></path>
            </g>
        </g>
    </g>
</svg>