<?xml version="1.0" encoding="UTF-8"?>
<svg width="12px" height="13px" viewBox="0 0 12 13" version="1.1" xmlns="http://www.w3.org/2000/svg" xmlns:xlink="http://www.w3.org/1999/xlink">
    <!-- Generator: Sketch 61 (89581) - https://sketch.com -->
    <title>搜索</title>
    <desc>Created with Sketch.</desc>
    <g id="终稿" stroke="none" stroke-width="1" fill="none" fill-rule="evenodd">
        <g id="搜索" transform="translate(0.000000, 0.499998)" fill-rule="nonzero">
            <rect id="矩形" fill="#000000" opacity="0" x="0" y="0" width="12" height="12"></rect>
            <path d="M7.38514945,8.30828885 C5.44737625,9.76161876 2.71581068,9.46981546 1.12877021,7.63994242 C-0.458270266,5.81006939 -0.360839089,3.06469021 1.35192663,1.3519245 C3.06469234,-0.360841219 5.81007152,-0.458272396 7.63994455,1.12876808 C9.46981759,2.71580855 9.76162089,5.44737412 8.30829098,7.38514732 L12.0000021,11.0768563 L11.0768585,12 L7.38514945,8.30828885 Z M4.61572484,8.30828885 C6.65507281,8.30828885 8.30829099,6.65507068 8.30829099,4.6157227 C8.30829099,2.57637473 6.65507281,0.923156546 4.61572484,0.923156546 C2.59854688,0.953891953 0.979415178,2.59788204 0.979415178,4.61529413 C0.979415178,6.63270623 2.59854688,8.27669631 4.61572484,8.30743172 L4.61572484,8.30828885 Z" id="形状" fill="#FFFFFF"></path>
        </g>
    </g>
</svg>